<?xml version="1.0" encoding="utf-8"?>
<!-- Generator: Adobe Illustrator 21.0.0, SVG Export Plug-In . SVG Version: 6.00 Build 0)  -->
<svg version="1.1" id="Layer_1" xmlns="http://www.w3.org/2000/svg" xmlns:xlink="http://www.w3.org/1999/xlink" x="0px" y="0px"
	 viewBox="0 0 336.7 120.6" enable-background="new 0 0 336.7 120.6" xml:space="preserve">
<g>
	<path d="M60.7,55.9L60.7,55.9c0.2,0,4.2,0,6.6,2.5c1.2,1.3,1.8,3,1.7,5.1c-0.1,1.6-0.1,2.3-0.2,2.5c0,0-0.1,4.6-6.4,5.1
		c-6.7,0.5-16.4,0.5-16.8,0.5l-0.1,0c0,0-0.2,0-0.5,0c-0.9,0-3.1-0.1-4.4-1.5c-0.7-0.7-1-1.7-1-3c0.1-4.7,0.1-9.8,0.1-11.7
		L60.7,55.9z M39.8,38.5c0,0,0-2.1,1.5-3.6c1-1,2.5-1.5,4.4-1.5c0.1,0,0.1,0,0.2,0l15.3,0.9c0.2,0,6,0.3,6,4.8v3.5
		c0,1-0.8,4.3-7.4,4.5c-7.2,0.2-17.2,0.5-20,0.6L39.8,38.5z M70.6,51.6c10.4-1.8,11.2-7.6,11.2-7.6s0.1,0.2,0.3-7.3
		c0.3-9.7-11.7-10.6-11.7-10.6s-15.3-1.7-31-1.5c-15.7,0.1-14.6,9.7-14.6,9.7s-0.1,26.2,0,37.4C24.9,83,35.8,82.4,35.8,82.4
		s19.8-0.6,33.5-2.3c12.7-1.6,13.9-9.1,13.9-9.1S83.9,69,83.7,60C83.6,51,70.6,51.6,70.6,51.6"/>
	<path d="M309.6,32.9l-0.8,7.5L289,39.9c0,0-9.2-0.5-9.2,4.8c0,0-0.5,3.3,5.6,4.7c5.5,1.2,17.6,3,22.8,6.5c0,0,4.4,3.4,4.5,9.3
		c0,0,1.1,14.3-21.4,14.4c-5.4,0-24.6-1.9-24.6-1.9l0.6-7.3l25.4,0.4c0,0,6.6-0.1,5.8-5.5c0,0,0.4-4.6-11-6.6
		c-4.9-0.9-11.1-2.4-11.1-2.4s-11.6-2.9-11.5-12.8c0,0-0.6-12.3,17.9-12.4C300.2,31,309.6,32.9,309.6,32.9"/>
	<path d="M136.3,32.2l-34.6-1c0,0-10,0.4-10.2,10.2v30.4c0,0,0,7.3,7.8,7.3c7.8,0,36.8-0.7,36.8-0.7l-0.2-7.2l-26.4-0.8
		c0,0-4.8,0.6-4.8-3.9c0-4.4-0.1-6.9-0.1-6.9l27.5-0.9l0.1-7h-27.6l0.1-8c0,0-0.2-3.7,5.2-3.7c5.4,0,25.9-0.3,25.9-0.3L136.3,32.2z"
		/>
	<path d="M155.3,44.6c0,0-0.7-0.7-0.8-1.7l-0.2,35.8l-11.5-0.5l0.1-41c0,0,0.8-7.3,6.6-7.4c0,0,6.3-2,12.7,5.5l21.8,29.4
		c0,0,0.9,0.9,1.1,2.5l0-35.7l10.5,0.5l0.9,40.5c0,0-0.4,6.7-6.2,6.8c0,0-7.8,1.3-12.5-4.8L155.3,44.6z"/>
	<path d="M217.7,44.5c0,0-0.7-0.7-0.8-1.7l-0.2,35.8l-11.4-0.5l0.1-41c0,0,0.8-7.3,6.6-7.4c0,0,6.3-2,12.7,5.5l21.8,29.4
		c0,0,0.9,0.9,1.1,2.5l-0.1-35.7l10.5,0.5l0.9,40.5c0,0-0.4,6.7-6.2,6.8c0,0-7.8,1.3-12.5-4.8L217.7,44.5z"/>
	<polygon points="83.6,86.1 24.9,91.7 24.9,103.2 82.9,94.1 	"/>
</g>
</svg>
